<mxfile host="app.diagrams.net" modified="2022-07-15T03:48:55.810Z" agent="5.0 (Macintosh; Intel Mac OS X 10_15_7) AppleWebKit/537.36 (KHTML, like Gecko) Chrome/103.0.0.0 Safari/537.36" etag="V5Z798B1Hyj5xApr0ydR" version="20.1.1" type="github">
  <diagram id="fi-OBeDVoVyC95V5E4uT" name="Page-1">
    <mxGraphModel dx="1298" dy="294" grid="1" gridSize="10" guides="1" tooltips="1" connect="1" arrows="1" fold="1" page="1" pageScale="1" pageWidth="827" pageHeight="1169" math="0" shadow="0">
      <root>
        <mxCell id="0" />
        <mxCell id="1" parent="0" />
        <mxCell id="qyG4BkSLCux7nXN27tCq-3" value="" style="edgeStyle=orthogonalEdgeStyle;rounded=0;orthogonalLoop=1;jettySize=auto;html=1;" edge="1" parent="1" source="qyG4BkSLCux7nXN27tCq-1" target="qyG4BkSLCux7nXN27tCq-2">
          <mxGeometry relative="1" as="geometry" />
        </mxCell>
        <mxCell id="qyG4BkSLCux7nXN27tCq-1" value="AVFormatContext&lt;br&gt;[input]" style="rounded=1;whiteSpace=wrap;html=1;" vertex="1" parent="1">
          <mxGeometry x="30" y="70" width="130" height="60" as="geometry" />
        </mxCell>
        <mxCell id="qyG4BkSLCux7nXN27tCq-2" value="&lt;br&gt;" style="rounded=1;whiteSpace=wrap;html=1;" vertex="1" parent="1">
          <mxGeometry x="30" y="210" width="130" height="60" as="geometry" />
        </mxCell>
      </root>
    </mxGraphModel>
  </diagram>
</mxfile>
